<?xml version="1.0" encoding="utf-8"?>
<svg xmlns="http://www.w3.org/2000/svg" xmlns:svg="http://www.w3.org/2000/svg" version="1.1" viewBox="0 0 1400 340">
	<title>The titlepage for the Standard Ebooks edition of Peter and Wendy, by J. M. Barrie</title>
	<g aria-label="PETER AND WENDY">
		<path d="M 209.35672,52.807016 V 130 h 17.59064 v -28.63158 h 10.5731 c 15.06433,0 26.38597,-8.888888 26.38597,-24.795322 0,-16 -11.32164,-23.766082 -26.38597,-23.766082 z m 17.59064,34.526317 V 66.842104 h 4.95907 c 6.92397,0 13.47368,2.339181 13.47368,10.292398 0,7.859649 -6.54971,10.198831 -13.47368,10.198831 z"/>
		<path d="M 320.83771,52.807016 H 276.67397 V 130 h 44.16374 v -15.4386 h -26.5731 V 99.029239 h 25.4503 V 83.590642 h -25.4503 V 68.245613 h 26.5731 z"/>
		<path d="m 331.08479,68.245613 h 18.33918 V 130 h 17.59064 V 68.245613 h 18.33918 V 52.807016 h -54.269 z"/>
		<path d="M 440.85234,52.807016 H 396.6886 V 130 h 44.16374 v -15.4386 h -26.5731 V 99.029239 h 25.45029 V 83.590642 H 414.27924 V 68.245613 h 26.5731 z"/>
		<path d="M 455.9649,52.807016 V 130 h 17.59065 V 99.497075 L 497.13449,130 h 22.36258 l -26.5731,-31.906433 c 9.45029,-2.994152 15.81286,-10.760234 15.81286,-22.362574 0,-15.157895 -10.8538,-22.923977 -25.16959,-22.923977 z m 17.59065,34.245615 V 66.842104 h 2.05848 c 6.64327,0 14.59649,0.467836 14.59649,10.105263 0,9.637428 -7.95322,10.105264 -14.59649,10.105264 z"/>
		<path d="m 597.82311,52.807016 h -16.2807 L 550.38452,130 h 18.90058 l 5.70761,-15.4386 h 29.38011 L 610.08043,130 h 18.90058 z m 0.56141,46.31579 h -17.40351 l 8.60819,-22.45614 h 0.18713 z"/>
		<path d="m 654.49124,82.093566 h 0.18714 L 685.36844,130 h 17.59064 V 52.807016 H 685.36844 V 100.71345 H 685.1813 L 654.49124,52.807016 H 636.9006 V 130 h 17.59064 z"/>
		<path d="M 719.20321,52.807016 V 130 h 22.36258 c 21.23976,0 38.92397,-16.09357 38.92397,-38.643276 0,-22.45614 -17.77777,-38.549708 -38.92397,-38.549708 z M 736.79386,114.2807 V 68.526315 h 2.71345 c 13.09941,0 21.9883,10.011696 21.9883,22.923977 -0.0936,12.912278 -8.98245,22.830408 -21.9883,22.830408 z"/>
		<path d="m 875.05409,130 h 19.46199 l 21.9883,-77.192984 h -19.46199 l -13.19298,52.959064 h -0.46784 L 869.34649,52.807016 h -13.28655 l -14.03509,52.959064 h -0.46784 L 828.36403,52.807016 H 808.80847 L 830.79678,130 h 19.55555 l 12.35088,-43.321638 z"/>
		<path d="M 969.8874,52.807016 H 925.72366 V 130 H 969.8874 V 114.5614 H 943.3143 V 99.029239 h 25.4503 V 83.590642 H 943.3143 V 68.245613 h 26.5731 z"/>
		<path d="m 1002.5907,82.093566 h 0.1871 L 1033.4679,130 h 17.5906 V 52.807016 h -17.5906 v 47.906434 h -0.1872 l -30.69,-47.906434 H 985.00003 V 130 h 17.59067 z"/>
		<path d="M 1067.3026,52.807016 V 130 h 22.3626 c 21.2398,0 38.924,-16.09357 38.924,-38.643276 0,-22.45614 -17.7778,-38.549708 -38.924,-38.549708 z m 17.5907,61.473684 V 68.526315 h 2.7134 c 13.0994,0 21.9883,10.011696 21.9883,22.923977 -0.093,12.912278 -8.9824,22.830408 -21.9883,22.830408 z"/>
		<path d="m 1124.5541,52.807016 28.4445,42.5731 V 130 h 17.5906 V 95.380116 l 28.4445,-42.5731 h -21.1462 l -16.0936,24.701755 -16.0936,-24.701755 z"/>
	</g>
	<g aria-label="J. M. BARRIE">
		<path d="m 476.91722,232.10526 h -13.19299 v 38.17544 c 0,5.82456 -2.87719,8.14035 -6.66666,8.14035 -3.36842,0 -7.50877,-3.92982 -7.50877,-3.92982 l -4.21053,11.01754 c 0,0 5.26316,5.54386 13.54386,5.54386 11.57895,0 18.03509,-6.03509 18.03509,-17.40351 z"/>
		<path d="m 497.61897,274.98246 c -4.42105,0 -8,3.57894 -8,8.07017 0,4.42105 3.57895,8 8,8 4.49123,0 8.07018,-3.57895 8.07018,-8 0,-4.49123 -3.57895,-8.07017 -8.07018,-8.07017 z"/>
		<path d="m 591.20121,290 h 13.19298 l -5.19298,-57.89474 h -14.03509 l -12.8421,33.40351 -12.84211,-33.40351 H 545.44682 L 540.25384,290 h 13.19298 l 2.73684,-34.31579 h 0.35088 l 11.85965,33.96491 h 7.85965 l 11.85965,-33.96491 h 0.35088 z"/>
		<path d="m 622.67928,274.98246 c -4.42105,0 -8,3.57894 -8,8.07017 0,4.42105 3.57895,8 8,8 4.49123,0 8.07018,-3.57895 8.07018,-8 0,-4.49123 -3.57895,-8.07017 -8.07018,-8.07017 z"/>
		<path d="M 668.40186,232.10526 V 290 h 21.96491 c 12,0 18.94737,-6.59649 18.94737,-16.14035 0,-9.33333 -5.1228,-13.33333 -12.35087,-14.59649 4.91228,-2.52632 7.22807,-7.08772 7.22807,-12.42105 0,-11.01755 -7.85965,-14.73685 -17.82457,-14.73685 z m 13.19298,22.66667 V 242.2807 h 1.05264 c 5.75438,0 8.77193,1.75439 8.77193,5.89474 0,4.8421 -3.08772,6.59649 -8.77193,6.59649 z m 0,25.05263 v -13.68421 h 4.14036 c 6.24561,0 9.68421,1.89474 9.68421,7.22807 0,4.5614 -3.4386,6.45614 -9.68421,6.45614 z"/>
		<path d="M 748.1727,232.10526 H 735.96217 L 712.59375,290 h 14.17544 l 4.2807,-11.57895 h 22.03509 L 757.36568,290 h 14.17544 z m 0.42105,34.73685 H 735.54112 L 741.99726,250 h 0.14035 z"/>
		<path d="M 778.73083,232.10526 V 290 h 13.19298 V 267.12281 L 809.60802,290 h 16.77193 l -19.92983,-23.92982 c 7.08772,-2.24562 11.85965,-8.07018 11.85965,-16.77193 0,-11.36842 -8.14035,-17.19299 -18.87719,-17.19299 z m 13.19298,25.68421 v -15.15789 h 1.54386 c 4.98245,0 10.94737,0.35088 10.94737,7.57895 0,7.22807 -5.96492,7.57894 -10.94737,7.57894 z"/>
		<path d="M 834.03234,232.10526 V 290 h 13.19298 V 267.12281 L 864.90953,290 h 16.77193 l -19.92982,-23.92982 c 7.08772,-2.24562 11.85965,-8.07018 11.85965,-16.77193 0,-11.36842 -8.14035,-17.19299 -18.8772,-17.19299 z m 13.19298,25.68421 v -15.15789 h 1.54386 c 4.98246,0 10.94737,0.35088 10.94737,7.57895 0,7.22807 -5.96491,7.57894 -10.94737,7.57894 z"/>
		<path d="M 902.52687,232.10526 H 889.33388 V 290 h 13.19299 z"/>
		<path d="M 949.11239,232.10526 H 915.98958 V 290 h 33.12281 v -11.57895 h -19.92982 v -11.64912 h 19.08772 v -11.57895 h -19.08772 v -11.50877 h 19.92982 z"/>
	</g>
</svg>
